<svg width="16" height="16" viewBox="0 0 16 16" fill="none" xmlns="http://www.w3.org/2000/svg">
	<path stroke="#9AA7B0" d="M13.25 14.5H2.75C2.06365 14.5 1.5 13.9363 1.5 13.25V2.75C1.5 2.06364 2.06364 1.5 2.75 1.5H13.25C13.9364 1.5 14.5 2.06364 14.5 2.75V13.25C14.5 13.9363 13.9363 14.5 13.25 14.5Z" />
	<path fill="#9AA7B0" id="top-line" d="M3,3H3V4H13V3 Z" />
	<path fill="#9AA7B0" id="left-side" d="M4,4H5V5H4V4 M5,5H6V6H5V5 M6,6H7V7H6V6 M6,7H7V8H6V7 M6,8H7V9H6V8 M6,9H7V10H6V9 M5,10H6V11H5V10 M4,11H5V12H4V11 Z" />
	<path fill="#9AA7B0" id="right-side" d="M12,4H11V5H12V4 M11,5H10V6H11V5 M9,6H10V7H9V6 M9,7H10V8H9V7 M9,8H10V9H9V8 M9,9H10V10H9V9 M11,10H10V11H11V10 M12,11H11V12H12V11 Z" />
	<path fill="#9AA7B0" id="center-square" d="M7,7H9V9H7V7 Z" />
	<path fill="#9AA7B0" id="bottom-line" d="M3,12H13V13H3V3 Z" />
</svg>
